<svg xmlns="http://www.w3.org/2000/svg" viewBox="0 0 1024 500" width="100%" height="100%">
  <defs>
    <linearGradient id="featureBg" x1="0%" y1="0%" x2="100%" y2="100%">
      <stop offset="0%" stop-color="#0F0C20"/>
      <stop offset="100%" stop-color="#1A103C"/>
    </linearGradient>
    <linearGradient id="cGrad" x1="0%" y1="0%" x2="100%" y2="0%">
      <stop offset="0%" stop-color="#00F2FE"/>
      <stop offset="100%" stop-color="#4FACFE"/>
    </linearGradient>
    <linearGradient id="pGrad" x1="0%" y1="0%" x2="100%" y2="0%">
      <stop offset="0%" stop-color="#FF0844"/>
      <stop offset="100%" stop-color="#FFB199"/>
    </linearGradient>
  </defs>

  <rect width="1024" height="500" rx="40" fill="url(#featureBg)"/>

  <!-- Left: Glowing Logo Icon -->
  <g transform="translate(100, 100)">
    <polygon points="150,20 270,90 270,230 150,300 30,230 30,90" fill="#120924" stroke="url(#cGrad)" stroke-width="5"/>
    <path d="M 80 100 L 220 100 L 110 220 L 220 220" fill="none" stroke="url(#pGrad)" stroke-width="22" stroke-linecap="round" stroke-linejoin="round"/>
    <path d="M 80 100 L 220 100 L 110 220 L 220 220" fill="none" stroke="url(#cGrad)" stroke-width="12" stroke-linecap="round" stroke-linejoin="round"/>
  </g>

  <!-- Right: Title and Features -->
  <text x="460" y="180" font-family="sans-serif" font-size="56" font-weight="900" fill="#FFFFFF">ZUNO <tspan fill="url(#cGrad)">AI</tspan></text>
  <text x="460" y="230" font-family="sans-serif" font-size="22" font-weight="bold" fill="url(#pGrad)">Futuristic Android Assistant</text>

  <text x="460" y="290" font-family="sans-serif" font-size="18" fill="#A0A5C0">✓ Qwen Max 3.8, Gemini 3.6 &amp; Claude 4.6</text>
  <text x="460" y="325" font-family="sans-serif" font-size="18" fill="#A0A5C0">✓ Secure Encrypted Cloud Sync &amp; Session History</text>
  <text x="460" y="360" font-family="sans-serif" font-size="18" fill="#A0A5C0">✓ Cyberpunk Dark Glassmorphic Interface</text>
  <text x="460" y="395" font-family="sans-serif" font-size="18" fill="#A0A5C0">✓ Full Account System (Login &amp; Register)</text>

  <text x="460" y="445" font-family="sans-serif" font-size="14" fill="#6E759F">Developed by zzamcode • Version 1.0.0</text>
</svg>
